# xmcd
#
# Track frame offsets:
#	150
#	12723
#	26028
#	37684
#	47255
#	59800
#	72658
#	84036
#	98721
#	122268
#	130281
#	150610
#	163034
#	186234
#	203273
#	213853
#	221224
#	236128
#
# Disc length: 3317 seconds
#
# Revision: 0
# Processed by: cddbd v1.5.1PL2 Copyright (c) Steve Scherf et al.
# Submitted via: audiograbber 1.83.01
#
DISCID=f30cf312
DTITLE=Various Artist - Got a Feel'ng Called the Blues
DYEAR=2006
DGENRE=Blues
TTITLE0=Slim Harpo - I've Got Love if You Want It
TTITLE1=Muddy Waters - You Can't Lose What You Ain't Never Had
TTITLE2=Odetta - Midnight Special
TTITLE3=Son House - Grinnin' In Your Face
TTITLE4=Buddy Guy - I Love the Life I Live
TTITLE5=Junior Wells - Snatch It Back and Hold It
TTITLE6=Big Bill Broonzy - The Glory of Love
TTITLE7=Leadbelly - John Hardy
TTITLE8=Skip James - Devil Got My Woman
TTITLE9=Precious Bryant - Broke and Ain't Got a Dime
TTITLE10=Mississippi John Hurt - Make Me a Pallrt on Your Floor
TTITLE11=Howlin' Wolf - Spoonful
TTITLE12=John Lee Hooker - It Serves You Right to Suffer
TTITLE13=T-Bone Walker - T-Bone Blues
TTITLE14=Jimmy Reed - Take Out Some Insurance
TTITLE15=Lightnin' Hopkins - Long Time
TTITLE16=Bessie Smith - Backwater Blues
TTITLE17=Floyd Dixon - Hole in the Wall
EXTD=
EXTT0=
EXTT1=
EXTT2=
EXTT3=
EXTT4=
EXTT5=
EXTT6=
EXTT7=
EXTT8=
EXTT9=
EXTT10=
EXTT11=
EXTT12=
EXTT13=
EXTT14=
EXTT15=
EXTT16=
EXTT17=
PLAYORDER=
